<svg id="Layer_1" data-name="Layer 1" xmlns="http://www.w3.org/2000/svg" viewBox="0 0 230 72"><defs><style>.cls-1{fill:#fff;}</style></defs><path class="cls-1" d="M167.29,35.39h-2.15c.17,1.83.25,3.7.25,5.58a46.71,46.71,0,0,0,.53,7.48l.27,1.68-1.69.26a34.8,34.8,0,0,1-5,.5c-6.22,0-11.14-2-14.61-5.81a19.46,19.46,0,0,1-5.15-13.37A18.73,18.73,0,0,1,144.31,19c3.07-3.5,7.49-5.27,13.14-5.27a34.29,34.29,0,0,1,7.12.92l.3-2a28.57,28.57,0,0,0-5.62-.54c-6.92,0-12.15,2-16,6.14a20.42,20.42,0,0,0-5.76,14.46,18.91,18.91,0,0,0,5.25,13.68c3.47,3.64,8.76,5.48,15.74,5.48a31.68,31.68,0,0,0,8.86-1.27c-.14-4-.21-6.71-.21-8C167.13,40.13,167.19,37.7,167.29,35.39Z"/><path class="cls-1" d="M111.32,47.9c-1.14-1.74-1.67-4.81-1.67-9.66q0-6.06.06-10.91l0-1.67h1.67c2,0,4.54.05,7.64.14l.06-1.24c-3.16.15-5.66.23-7.45.23H110v-1.7c0-1.67.13-4.27.39-7.75l-1.55.16c-.17,3.92-.26,6.47-.26,7.59v1.7h-1.69c-1.16,0-2.44,0-3.82-.1L103,25.76c1.47-.07,2.63-.1,3.52-.1h1.71l0,1.71q-.06,7.87-.06,12.76c0,5.8,1,8.37,1.79,9.5,1.07,1.48,3.26,2.23,6.51,2.23a11.42,11.42,0,0,0,3.19-.49l.07-.75a10.79,10.79,0,0,1-1.79.18C114.79,50.8,112.58,49.82,111.32,47.9Z"/><path class="cls-1" d="M69,44.81c0,.87,0,2.66,4.46,2.66a11.76,11.76,0,0,0,6.7-1.75c-.06-2.22-.11-4.3-.12-6.21a29.38,29.38,0,0,0-7,.81C69.45,41.41,69,43.29,69,44.81Z"/><path class="cls-1" d="M85.13,37.05c.09-2.61.14-4.43.14-5.4,0-3.21-.82-5.45-2.43-6.68-1.76-1.33-4.38-2-7.79-2a40.45,40.45,0,0,0-9.51,1l-.11.9a41.28,41.28,0,0,1,7.92-.77c3.2,0,5.57.52,7.26,1.57,1.92,1.21,2.89,3.46,2.89,6.69a14.68,14.68,0,0,1-.11,2l-.18,1.47-1.47,0c-7.15.1-12,1-14.51,2.84a7.62,7.62,0,0,0-3.46,6.55,5.86,5.86,0,0,0,2,4.85,8,8,0,0,0,5.28,1.78,15.36,15.36,0,0,0,7.64-1.74,17.71,17.71,0,0,1-5.27.74c-6.83,0-7.85-3.79-7.85-6,0-2.63,1.12-6.11,6.46-7.74a36.78,36.78,0,0,1,9.65-1h1.7v1.7c0,2.56,0,5.48.16,8.69l0,.82-.63.53c-.18.15-.36.3-.55.43h1.41V50a8.91,8.91,0,0,0,.09,1.23l1.65-.06A62.1,62.1,0,0,1,85,42.38C85,41.48,85,39.74,85.13,37.05Z"/><path class="cls-1" d="M45.38,35.39H43.22c.17,1.83.26,3.7.26,5.58A46.81,46.81,0,0,0,44,48.45l.28,1.68-1.7.26a34.67,34.67,0,0,1-5,.5c-6.22,0-11.13-2-14.6-5.81a19.42,19.42,0,0,1-5.16-13.37A18.73,18.73,0,0,1,22.39,19c3.07-3.5,7.49-5.27,13.15-5.27a34.29,34.29,0,0,1,7.11.92l.3-2a28.5,28.5,0,0,0-5.62-.54c-6.92,0-12.15,2-16,6.14A20.38,20.38,0,0,0,15.58,32.7a18.87,18.87,0,0,0,5.25,13.68c3.46,3.64,8.75,5.48,15.73,5.48a31.8,31.8,0,0,0,8.87-1.27c-.15-4-.22-6.71-.22-8C45.21,40.13,45.27,37.7,45.38,35.39Z"/><path class="cls-1" d="M0,0V72H230V0ZM48.86,51.77l0,1.27-1.21.39a35.35,35.35,0,0,1-11.13,1.82c-7.94,0-14.06-2.2-18.19-6.53a22.45,22.45,0,0,1-6.18-16,23.93,23.93,0,0,1,6.67-16.77c4.45-4.79,10.67-7.22,18.47-7.22a31.54,31.54,0,0,1,8,1l1.48.38-1.3,8.66-1.8-.44a36.57,36.57,0,0,0-8.12-1.23c-4.7,0-8.17,1.34-10.6,4.11a15.25,15.25,0,0,0-3.69,10.53,15.93,15.93,0,0,0,4.29,11.1c2.84,3.16,6.79,4.7,12.08,4.7a24.13,24.13,0,0,0,2.8-.23A55.12,55.12,0,0,1,40.09,41a56.35,56.35,0,0,0-.44-7.06L39.41,32H49l-.11,1.8c-.16,2.76-.25,5.73-.25,8.83C48.6,44,48.69,47,48.86,51.77ZM81.2,54.69l-.33-1.34c0-.17-.08-.33-.11-.49a18.45,18.45,0,0,1-9.68,2.39,11.44,11.44,0,0,1-7.41-2.54,9.14,9.14,0,0,1-3.29-7.48,11,11,0,0,1,4.87-9.31c2.89-2.07,7.76-3.2,14.86-3.43a.41.41,0,0,0,0-.11c0-2-.44-3.27-1.31-3.82a11,11,0,0,0-5.46-1,37.83,37.83,0,0,0-9.47,1.2l-2.41.61,1-8L63.53,21a42,42,0,0,1,11.52-1.45c4.16,0,7.47.91,9.83,2.7,2.51,1.9,3.78,5.06,3.78,9.38,0,1,0,2.84-.15,5.52s-.14,4.37-.14,5.21a54,54,0,0,0,.84,10.06l.36,1.93Zm41.6-.84-1,.37a15.71,15.71,0,0,1-5.35,1c-4.4,0-7.52-1.22-9.26-3.63s-2.43-6-2.43-11.49q0-4.35,0-11.05c-1,0-2.13.08-3.48.16l-1.87.1.34-8.24,1.73.11c1.31.08,2.54.14,3.68.17,0-1.66.14-4.17.29-7.49l.06-1.46,8.51-.87-.16,2c-.27,3.28-.44,5.89-.51,7.79,1.93,0,4.41-.14,7.41-.3l1.87-.1-.39,8.31-1.67-.05c-3-.1-5.48-.16-7.53-.18q0,4.17,0,9.18c0,5.31.7,7.17,1.12,7.81.59.9,1.85,1.36,3.75,1.36a13.67,13.67,0,0,0,3.25-.59l2.34-.61Zm48-2.08,0,1.27-1.21.39a35.39,35.39,0,0,1-11.13,1.82c-7.94,0-14.06-2.2-18.19-6.53a22.45,22.45,0,0,1-6.18-16,24,24,0,0,1,6.66-16.77c4.46-4.79,10.68-7.22,18.48-7.22a31.6,31.6,0,0,1,7.95,1l1.48.38-1.31,8.66-1.79-.44a36.56,36.56,0,0,0-8.13-1.23c-4.7,0-8.16,1.34-10.59,4.11a15.25,15.25,0,0,0-3.7,10.53,16,16,0,0,0,4.29,11.1c2.84,3.16,6.79,4.7,12.09,4.7a24.13,24.13,0,0,0,2.8-.23A55.12,55.12,0,0,1,162,41a56.35,56.35,0,0,0-.44-7.06L161.33,32h9.55l-.11,1.8c-.17,2.76-.25,5.73-.25,8.83C170.52,44,170.6,47,170.77,51.77Zm40-1.6a17.06,17.06,0,0,1-12.27,5.08,16.08,16.08,0,0,1-11.4-4.53c-3.18-3-4.8-7.31-4.8-12.7,0-6,1.76-10.7,5.23-14.12a17,17,0,0,1,12.29-5.13,15.86,15.86,0,0,1,11.39,4.6c3.17,3.06,4.78,7.36,4.78,12.79C216,42.08,214.24,46.79,210.78,50.17Z"/><path class="cls-1" d="M199.83,22.16a13.54,13.54,0,0,0-9.91,4.16c-2.84,2.79-4.22,6.62-4.22,11.7,0,4.49,1.22,7.84,3.75,10.24a12.59,12.59,0,0,0,9.06,3.6,13.57,13.57,0,0,0,9.9-4.11c2.83-2.76,4.2-6.55,4.2-11.59,0-4.54-1.22-7.92-3.74-10.36A12.44,12.44,0,0,0,199.83,22.16Zm7.88,24.6a10.32,10.32,0,0,1-17.1-.19,17.74,17.74,0,0,1-2.79-9.83,16.65,16.65,0,0,1,2.77-9.5,10.29,10.29,0,0,1,17.08.24,17.73,17.73,0,0,1,2.79,9.8A16.82,16.82,0,0,1,207.71,46.76Z"/><path class="cls-1" d="M199.09,26.2a6.4,6.4,0,0,0-5.69,2.93,13.14,13.14,0,0,0-2.19,7.61,14.38,14.38,0,0,0,2.24,8,6.92,6.92,0,0,0,11.44.16,13.25,13.25,0,0,0,2.18-7.6,14.44,14.44,0,0,0-2.24-8A6.4,6.4,0,0,0,199.09,26.2Z"/></svg>